<svg width="13" height="12" fill="none" xmlns="http://www.w3.org/2000/svg"><path d="M10.34 8.897H5.47a1.578 1.578 0 01-1.516-1.139L2.308 2.093a.488.488 0 00-.475-.346H.542A.546.546 0 010 1.197c0-.304.242-.55.542-.55h1.29c.702 0 1.325.468 1.515 1.139l.308 1.061h8.285a1.063 1.063 0 011.013 1.37l-1.117 3.601a1.574 1.574 0 01-1.495 1.079zm1.6-4.95h.005-.005zm-5.982 7.7a1.093 1.093 0 01-1.083-1.1c0-.607.486-1.1 1.083-1.1.598 0 1.083.493 1.083 1.1 0 .607-.485 1.1-1.083 1.1zm0-1.1zm3.792 1.1a1.093 1.093 0 01-1.084-1.1c0-.607.486-1.1 1.084-1.1.597 0 1.083.493 1.083 1.1 0 .607-.486 1.1-1.083 1.1zm0-1.1z" fill="#fff"/></svg>