<svg width="21" height="13" fill="none" xmlns="http://www.w3.org/2000/svg"><path d="M15.87 3.176H5.13a2.648 2.648 0 01-1.91 1.95v2.747a2.648 2.648 0 011.91 1.95h10.74a2.648 2.648 0 011.911-1.95V5.127a2.648 2.648 0 01-1.911-1.95zm-5.37 6.03c-1.462 0-2.651-1.214-2.651-2.706s1.19-2.706 2.651-2.706c1.462 0 2.651 1.214 2.651 2.706s-1.19 2.706-2.651 2.706z" fill="#6B757D"/><path d="M20.375 0H.625A.632.632 0 000 .638v11.724c0 .352.28.638.625.638h19.75a.632.632 0 00.625-.638V.638A.632.632 0 0020.375 0zm-1.969 9.072c-.75 0-1.362.623-1.362 1.39 0 .352-.28.637-.625.637H4.581a.632.632 0 01-.625-.638c0-.766-.611-1.39-1.362-1.39a.632.632 0 01-.625-.637V4.566c0-.352.28-.638.625-.638.75 0 1.362-.623 1.362-1.39 0-.352.28-.637.625-.637h11.838c.345 0 .625.285.625.637 0 .767.611 1.39 1.362 1.39.345 0 .625.286.625.638v3.868c0 .352-.28.638-.625.638z" fill="#6B757D"/><path d="M10.5 5.07c-.773 0-1.401.641-1.401 1.43 0 .788.628 1.43 1.401 1.43s1.401-.642 1.401-1.43c0-.789-.628-1.43-1.401-1.43z" fill="#6B757D"/></svg>