<svg width="13" height="12" viewBox="0 0 13 12" fill="none" xmlns="http://www.w3.org/2000/svg">
<path d="M10.3406 8.89693H5.46903C4.76651 8.89693 4.14361 8.42888 3.9535 7.75844L2.30688 2.09297C2.24838 1.88782 2.05393 1.74702 1.83186 1.74702H0.541649C0.242117 1.74702 0 1.50062 0 1.19703C0 0.893431 0.242117 0.647034 0.541649 0.647034H1.83186C2.53438 0.647034 3.15673 1.11508 3.34685 1.78552L3.65505 2.84701H11.9396C12.2776 2.84701 12.5982 3.01035 12.797 3.28425C12.9942 3.55595 13.051 3.89584 12.953 4.21704L11.8356 7.81839C11.6167 8.46848 11.0171 8.89693 10.3406 8.89693ZM11.9401 3.94699H11.9455H11.9401Z" fill="white"/>
<path d="M5.95814 11.647C5.3607 11.647 4.87484 11.1537 4.87484 10.547C4.87484 9.9404 5.3607 9.44705 5.95814 9.44705C6.55557 9.44705 7.04143 9.9404 7.04143 10.547C7.04143 11.1537 6.55557 11.647 5.95814 11.647ZM5.95814 10.5465V10.547V10.5465Z" fill="white"/>
<path d="M9.74968 11.647C9.15224 11.647 8.66638 11.1537 8.66638 10.547C8.66638 9.9404 9.15224 9.44705 9.74968 9.44705C10.3471 9.44705 10.833 9.9404 10.833 10.547C10.833 11.1537 10.3471 11.647 9.74968 11.647ZM9.74968 10.5465V10.547V10.5465Z" fill="white"/>
</svg>
