<svg width="6" height="6" viewBox="0 0 6 6" fill="none" xmlns="http://www.w3.org/2000/svg">
<path d="M3.33148 3.00001L5.93136 0.400116C6.02289 0.308581 6.02289 0.160175 5.93136 0.0686513C5.83982 -0.0228721 5.69142 -0.0228838 5.59989 0.0686513L3 2.66855L0.400116 0.0686513C0.308581 -0.0228838 0.160175 -0.0228838 0.0686513 0.0686513C-0.022872 0.160186 -0.0228838 0.308593 0.0686513 0.400116L2.66853 3L0.0686513 5.5999C-0.0228838 5.69143 -0.0228838 5.83984 0.0686513 5.93136C0.114413 5.97713 0.174401 6 0.234389 6C0.294378 6 0.354354 5.97713 0.400127 5.93136L3 3.33148L5.59988 5.93136C5.64564 5.97713 5.70563 6 5.76562 6C5.82561 6 5.88558 5.97713 5.93136 5.93136C6.02289 5.83983 6.02289 5.69142 5.93136 5.5999L3.33148 3.00001Z" fill="#6B757D"/>
</svg>
