<?xml version="1.0" encoding="utf-8"?><svg viewBox="0 0 17 14" xmlns="http://www.w3.org/2000/svg" xmlns:xlink="http://www.w3.org/1999/xlink"><style>:root>svg{display:none}:root>svg:target{display:block}</style><svg fill="none" viewBox="0 0 17 14" id="sprite--cart" xmlns="http://www.w3.org/2000/svg"><path d="M13.522 10.5h-6.37c-.919 0-1.733-.596-1.982-1.45L3.017 1.84a.637.637 0 00-.621-.44H.708A.704.704 0 010 .7C0 .314.317 0 .708 0h1.688c.918 0 1.732.596 1.98 1.449L4.78 2.8h10.833c.442 0 .862.208 1.122.556.257.346.332.779.204 1.188l-1.462 4.583a2.054 2.054 0 01-1.955 1.373zm2.092-6.3h.007-.007zM7.791 14a1.41 1.41 0 01-1.416-1.4c0-.772.635-1.4 1.416-1.4a1.41 1.41 0 011.417 1.4c0 .772-.635 1.4-1.417 1.4zm0-1.4zM12.75 14a1.41 1.41 0 01-1.417-1.4c0-.772.635-1.4 1.417-1.4a1.41 1.41 0 011.416 1.4c0 .772-.635 1.4-1.416 1.4zm0-1.4z" fill="#FF4E4E"/></svg></svg>